<?xml version="1.0" standalone="no"?>
<!DOCTYPE svg PUBLIC "-//W3C//DTD SVG 20010904//EN"
 "http://www.w3.org/TR/2001/REC-SVG-20010904/DTD/svg10.dtd">
<svg version="1.0" xmlns="http://www.w3.org/2000/svg"
 width="326.000000pt" height="181.000000pt" viewBox="0 0 326.000000 181.000000"
 preserveAspectRatio="xMidYMid meet">

<g transform="translate(0.000000,181.000000) scale(0.100000,-0.100000)"
fill="#A9C181" stroke="none">
<path d="M2140 1666 c-19 -14 -51 -36 -70 -49 -47 -32 -62 -51 -99 -121 -40
-76 -41 -116 -1 -149 16 -14 35 -27 41 -29 10 -3 9 -12 0 -39 -7 -18 -15 -82
-18 -141 -6 -102 -4 -110 21 -162 29 -60 100 -129 155 -152 38 -16 202 -24
241 -11 21 6 33 0 78 -39 35 -31 57 -43 63 -37 7 7 -5 24 -35 50 -25 22 -46
43 -46 46 0 4 20 18 44 32 33 19 50 24 63 17 32 -17 170 -45 187 -39 27 10 11
24 -36 31 -24 4 -67 14 -96 22 l-52 16 24 28 c50 60 71 119 74 216 4 100 -11
168 -53 239 -50 86 -179 172 -272 183 -38 4 -42 7 -45 35 -4 37 -39 64 -93 73
-33 5 -46 1 -75 -20z m128 -29 c6 -5 12 -20 12 -33 0 -22 -4 -24 -46 -24 -34
0 -54 6 -75 25 l-29 24 27 15 c29 16 87 12 111 -7z m-158 -69 c-19 -13 -49
-47 -69 -75 -19 -29 -37 -51 -39 -48 -11 11 13 67 44 104 27 31 43 41 66 41
l31 0 -33 -22z m333 -52 c141 -69 207 -179 207 -350 0 -138 -62 -233 -197
-302 -53 -26 -66 -29 -149 -27 -70 1 -102 7 -138 24 -56 26 -122 98 -136 148
-13 47 -11 173 3 236 l12 50 105 5 c89 4 114 9 163 33 63 31 107 80 107 119 0
29 -30 60 -80 83 l-35 16 43 -5 c24 -2 67 -16 95 -30z m-199 5 c3 -5 -1 -14
-9 -21 -13 -10 -15 -9 -15 9 0 21 14 28 24 12z m-61 -8 c-7 -2 -21 -2 -30 0
-10 3 -4 5 12 5 17 0 24 -2 18 -5z m188 -29 c38 -35 14 -81 -62 -120 -28 -14
-73 -28 -100 -31 l-49 -6 30 59 c17 32 47 75 67 95 31 33 38 36 65 28 17 -4
39 -16 49 -25z m-188 -22 c-2 -10 -19 -24 -37 -30 -36 -13 -106 -16 -106 -4 0
16 19 34 29 28 6 -4 14 0 17 8 4 12 20 16 54 16 42 0 47 -2 43 -18z m-183 -79
c0 -22 -2 -24 -15 -13 -8 7 -15 24 -15 37 0 22 2 24 15 13 8 -7 15 -24 15 -37z
m160 7 c0 -16 -43 -50 -64 -50 -20 0 -20 0 0 14 18 14 18 15 0 22 -10 4 -27 2
-37 -4 -24 -15 -29 -15 -29 3 0 10 16 15 58 18 31 2 60 4 65 5 4 1 7 -2 7 -8z"/>
<path d="M2190 1171 c-20 -38 -12 -78 21 -106 65 -54 91 -3 40 78 -33 52 -45
57 -61 28z"/>
<path d="M888 1554 c-5 -4 -8 -27 -8 -52 0 -38 -2 -43 -17 -37 -10 3 -47 9
-84 12 -64 5 -66 5 -92 -26 -27 -33 -44 -89 -33 -117 10 -25 23 -7 30 40 10
65 32 80 103 72 101 -12 101 -12 145 -100 60 -119 142 -206 194 -206 30 0 39
-45 30 -138 -11 -111 -34 -178 -73 -212 -40 -36 -68 -37 -168 -11 -78 20 -137
53 -184 103 -44 46 -55 88 -48 181 7 102 48 190 113 243 29 24 41 41 35 47 -6
6 -20 2 -40 -12 -75 -54 -130 -166 -138 -280 l-6 -79 -51 -5 c-28 -3 -85 -15
-126 -27 -41 -11 -109 -24 -150 -28 -41 -4 -75 -11 -75 -17 0 -23 111 -16 228
15 153 39 181 39 197 1 6 -16 32 -49 56 -74 l45 -45 -42 -33 c-88 -70 -142
-126 -135 -138 6 -8 22 1 55 31 26 24 71 62 99 85 l50 43 44 -20 c24 -11 53
-20 66 -20 12 0 22 -3 22 -8 0 -14 -151 -146 -211 -185 -33 -21 -57 -42 -54
-47 9 -15 17 -13 74 24 64 41 223 185 217 195 -3 4 20 6 50 3 53 -4 55 -4 98
39 31 31 49 60 60 98 23 79 31 201 17 254 -11 39 -11 47 8 78 51 83 4 217
-103 290 -19 13 -37 31 -39 40 -3 10 -15 17 -28 17 -13 1 -46 4 -74 7 -27 4
-53 3 -57 -1z m97 -37 c12 -10 14 -16 7 -21 -7 -4 -12 -25 -12 -46 l0 -39 -35
20 c-30 18 -35 26 -35 60 0 36 2 39 28 39 16 0 36 -6 47 -13z m124 -157 c20
-38 31 -71 30 -96 l-1 -39 -17 38 c-10 21 -27 45 -39 52 -20 15 -52 92 -52
129 0 19 1 19 24 -3 13 -13 38 -49 55 -81z m40 23 c26 -39 31 -55 30 -102 l-2
-56 -6 50 c-3 28 -19 72 -34 99 -15 27 -27 50 -27 52 0 12 11 -1 39 -43z
m-158 -20 c22 -20 49 -54 60 -75 10 -20 33 -53 50 -73 39 -44 31 -57 -15 -24
-44 32 -78 73 -115 141 -45 82 -42 87 20 31z"/>
<path d="M2695 1080 c-3 -5 0 -13 8 -16 23 -9 122 0 122 11 0 14 -122 19 -130
5z"/>
<path d="M895 1046 c-19 -28 -12 -66 16 -91 24 -22 47 -13 55 21 5 21 2 31
-14 45 -12 9 -22 22 -22 28 0 22 -20 20 -35 -3z"/>
<path d="M1569 796 c-2 -3 0 -44 6 -92 l10 -87 39 -13 c21 -8 43 -11 48 -8 13
8 -8 31 -36 38 -21 5 -25 14 -32 83 -8 67 -20 94 -35 79z"/>
<path d="M2022 280 c-97 -76 -170 -96 -350 -93 -110 2 -162 7 -220 23 -82 22
-169 60 -215 93 -19 13 -32 16 -39 9 -21 -21 133 -103 248 -131 97 -24 301
-36 369 -22 86 17 164 51 227 100 57 43 71 62 51 68 -4 1 -36 -20 -71 -47z"/>
</g>
</svg>
